<?xml version="1.0" encoding="UTF-8" standalone="no"?>
<!-- Created with Inkscape (http://www.inkscape.org/) -->

<svg
   width="167.0593"
   height="143.10843"
   viewBox="0 0 167.0593 143.10843"
   version="1.1"
   id="svg1"
   inkscape:version="1.3.2 (091e20e, 2023-11-25, custom)"
   sodipodi:docname="player_ranged_exploded.svg"
   xml:space="preserve"
   xmlns:inkscape="http://www.inkscape.org/namespaces/inkscape"
   xmlns:sodipodi="http://sodipodi.sourceforge.net/DTD/sodipodi-0.dtd"
   xmlns="http://www.w3.org/2000/svg"
   xmlns:svg="http://www.w3.org/2000/svg"><sodipodi:namedview
     id="namedview1"
     pagecolor="#ffffff"
     bordercolor="#666666"
     borderopacity="1.0"
     inkscape:showpageshadow="2"
     inkscape:pageopacity="0.0"
     inkscape:pagecheckerboard="0"
     inkscape:deskcolor="#d1d1d1"
     inkscape:document-units="px"
     inkscape:zoom="4"
     inkscape:cx="103"
     inkscape:cy="101.125"
     inkscape:window-width="2498"
     inkscape:window-height="1057"
     inkscape:window-x="-8"
     inkscape:window-y="-8"
     inkscape:window-maximized="1"
     inkscape:current-layer="layer5"><inkscape:page
       x="0"
       y="0"
       width="167.0593"
       height="143.10843"
       id="page14"
       margin="0"
       bleed="0" /><inkscape:page
       x="-1.0044892"
       y="-0.9739942"
       width="512"
       height="512"
       id="page15"
       margin="0"
       bleed="0" /></sodipodi:namedview><defs
     id="defs1" /><g
     inkscape:groupmode="layer"
     id="layer7"
     inkscape:label="Shadow"
     style="opacity:0.426374"
     transform="translate(9.9577933,-153.72399)"><ellipse
       style="opacity:1;fill:#000000;fill-opacity:1;stroke:none;stroke-width:0.6;stroke-linecap:round;stroke-linejoin:round;stroke-dasharray:none;stroke-opacity:1"
       id="path14"
       cx="47.592213"
       cy="165.24753"
       rx="57.549999"
       ry="11.523538" /></g><g
     inkscape:groupmode="layer"
     id="layer8"
     inkscape:label="Body"
     style="display:inline"
     transform="matrix(0.86351873,0,0,1.0003337,2.5473633,2.7487004)"><g
       class=""
       transform="matrix(0.22633626,0,0,0.22633626,-18.979201,32.848173)"
       id="g13"
       style="display:none"><g
         id="g12"><path
           d="m 148.96782,80.370958 c -20.642,13.654 -46.023,22.503002 -69.437996,26.030002 6.792,48.935 26.139996,84.133 45.969996,97.845 10.523,7.28 20.357,9.012 30.405,5.564 8.93,-3.064 18.63,-10.97 27.75,-25.594 -26.933,-30.227 -31.606,-71.05 -34.686,-103.844002 z"
           class=""
           fill="#ffffff"
           fill-opacity="1"
           stroke="#000000"
           stroke-opacity="1"
           stroke-width="4"
           data-darkreader-inline-fill=""
           data-darkreader-inline-stroke=""
           id="path1-7"
           style="fill:#da69d1;fill-opacity:1" /><path
           d="m 364.12618,81.116828 c -3.08,32.790002 -7.787,73.580002 -34.72,103.780002 9.117,14.61 18.857,22.5 27.783,25.564 10.047,3.448 19.85,1.715 30.375,-5.563 19.8,-13.693 39.12,-48.822 45.937,-97.655 -24.495,-3.17 -47.802,-11.350002 -69.375,-26.125002 z"
           class=""
           fill="#ffffff"
           fill-opacity="1"
           stroke="#000000"
           stroke-opacity="1"
           stroke-width="4"
           data-darkreader-inline-fill=""
           data-darkreader-inline-stroke=""
           id="path2"
           style="fill:#da69d1;fill-opacity:1" /><path
           d="m 256.5,88.22 c -31.2,0 -58.752,6.99 -75.47,17.655 0.988,5.463 2.15,10.912 3.564,16.25 16.138,-6.942 42.334,-11.47 71.937,-11.47 29.604,0 55.8,4.528 71.94,11.47 1.412,-5.338 2.575,-10.787 3.56,-16.25 C 315.31,95.203 287.716,88.22 256.5,88.22 Z"
           class=""
           fill="#ffffff"
           fill-opacity="1"
           stroke="#000000"
           stroke-opacity="1"
           stroke-width="4"
           data-darkreader-inline-fill=""
           data-darkreader-inline-stroke=""
           id="path3"
           style="fill:#5c0e56;fill-opacity:1" /><path
           d="m 75.406,132.374 -47.72,45.47 c 29.75,37.184 63.04,56.826 86.47,58.718 1.145,0.092 2.253,0.135 3.344,0.156 1.792,-7.583 3.963,-15.05 6.5,-22.345 -21.724,-15.023 -39.014,-43.736 -48.594,-82 z"
           class=""
           fill="#ffffff"
           fill-opacity="1"
           stroke="#000000"
           stroke-opacity="1"
           stroke-width="4"
           data-darkreader-inline-fill=""
           data-darkreader-inline-stroke=""
           id="path4"
           style="fill:#cf25c1;fill-opacity:1" /><path
           d="m 437.656,132.374 c -9.59,38.26 -26.87,66.978 -48.594,82 -0.03,0.022 -0.062,0.04 -0.093,0.063 2.54,7.276 4.728,14.72 6.53,22.28 1.11,-0.02 2.24,-0.06 3.406,-0.155 23.434,-1.892 56.75,-21.525 86.5,-58.72 l -47.75,-45.468 z"
           class=""
           fill="#ffffff"
           fill-opacity="1"
           stroke="#000000"
           stroke-opacity="1"
           stroke-width="4"
           data-darkreader-inline-fill=""
           data-darkreader-inline-stroke=""
           id="path5"
           style="fill:#cf25c1;fill-opacity:1" /><path
           d="m 192.656,144.844 c 4.54,9.7 10.45,18.604 18.25,26.155 l 5.125,4.97 -3.436,6.218 c -1.8,3.292 -3.672,6.388 -5.594,9.312 32.592,11.965 67.862,11.136 98.938,-0.188 -1.88,-2.868 -3.707,-5.902 -5.47,-9.125 l -3.406,-6.218 5.094,-4.97 c 7.53,-7.29 13.308,-15.846 17.78,-25.156 -43.627,10.534 -85.4,8.503 -127.28,-1 z"
           class=""
           fill="#ffffff"
           fill-opacity="1"
           stroke="#000000"
           stroke-opacity="1"
           stroke-width="4"
           data-darkreader-inline-fill=""
           data-darkreader-inline-stroke=""
           id="path6-2"
           style="fill:#71136a;fill-opacity:1" /><path
           d="m 318.156,206.654 c -38.403,15.68 -83.03,16.82 -123.406,0.157 -7.3,7.37 -15.218,12.574 -23.656,15.47 -9.922,3.404 -20.24,3.312 -30.063,0.374 -6.907,20.592 -10.78,42.597 -10.78,64.406 0,7.314 0.562,14.825 1.656,22.47 l 122.406,-29.907 2.22,-0.563 2.218,0.563 122.75,29.97 c 0.886,-7.647 1.344,-15.173 1.344,-22.533 0,-21.79 -3.89,-43.792 -10.844,-64.375 -9.812,2.928 -20.122,2.995 -30.03,-0.406 -8.5,-2.915 -16.472,-8.172 -23.814,-15.624 z"
           class=""
           fill="#ffffff"
           fill-opacity="1"
           stroke="#000000"
           stroke-opacity="1"
           stroke-width="4"
           data-darkreader-inline-fill=""
           data-darkreader-inline-stroke=""
           id="path7-5"
           style="fill:#801577;fill-opacity:1" /><path
           d="m 474.67039,202.83247 c -25.404,24.168 -52.068,38.018 -76.22,39.968 -0.427,0.034 -0.855,0.036 -1.28,0.062 1.214,8.075 1.99,16.228 2.28,24.406 22.806,3.78 54.723,0.098 90,-14.344 l -14.78,-50.093 z"
           class=""
           fill="#ffffff"
           fill-opacity="1"
           stroke="#000000"
           stroke-opacity="1"
           stroke-width="4"
           data-darkreader-inline-fill=""
           data-darkreader-inline-stroke=""
           id="path8"
           style="fill:#902287;fill-opacity:1" /><path
           d="m 37.08987,203.51434 -14.75,50.063 c 35.268,14.433 67.17,18.12 89.968,14.343 0.29,-8.18 1.076,-16.33 2.28,-24.406 -0.425,-0.026 -0.852,-0.028 -1.28,-0.063 -24.146,-1.95 -50.82,-15.777 -76.22,-39.937 z"
           class=""
           fill="#ffffff"
           fill-opacity="1"
           stroke="#000000"
           stroke-opacity="1"
           stroke-width="4"
           data-darkreader-inline-fill=""
           data-darkreader-inline-stroke=""
           id="path9"
           style="fill:#902287;fill-opacity:1" /><path
           d="m 256.531,288.53295 -121.06,29.593 c 1.972,8.128 4.51,16.35 7.5,24.625 33.536,-7.734 71.23,-11.506 108.5,-11.78 2.784,-0.02 5.564,-0.018 8.343,0 40.257,0.264 79.61,4.576 112.28,12.25 2.622,-8.343 4.8,-16.65 6.47,-24.875 l -122.034,-29.812 z"
           class=""
           fill="#ffffff"
           fill-opacity="1"
           stroke="#000000"
           stroke-opacity="1"
           stroke-width="4"
           data-darkreader-inline-fill=""
           data-darkreader-inline-stroke=""
           id="path10"
           style="fill:#a32198;fill-opacity:1" /><path
           d="m 250.97413,340.81277 c -35.09,0.24 -70.5,3.556 -101.625,10.405 3.586,8.164 7.618,16.326 12.03,24.438 28.365,-2.455 59.055,-3.677 89.47,-3.782 2.763,-0.008 5.525,-0.007 8.28,0 33.542,0.107 66.446,1.56 95.22,4.158 4.04,-8.015 7.635,-16.103 10.813,-24.188 -32.65,-7.392 -73.185,-11.312 -114.188,-11.03 z"
           class=""
           fill="#ffffff"
           fill-opacity="1"
           stroke="#000000"
           stroke-opacity="1"
           stroke-width="4"
           data-darkreader-inline-fill=""
           data-darkreader-inline-stroke=""
           id="path11"
           style="fill:#ad1fa1;fill-opacity:1" /><path
           d="m 250.91113,381.49659 c -26.842,0.09 -53.864,1.036 -79.125,2.94 5.517,8.88 11.473,17.652 17.813,26.217 4.832,1.102 13.818,2.332 25.344,3.032 13.2,0.8 29.062,1.137 44.812,1.06 15.75,-0.074 31.41,-0.565 44.22,-1.405 10.923,-0.716 19.234,-1.848 23.468,-2.72 6.205,-8.426 11.88,-17.067 17.062,-25.81 -28.492,-2.267 -60.905,-3.422 -93.594,-3.314 z"
           class="selected"
           fill="#ffffff"
           fill-opacity="1"
           stroke="#000000"
           stroke-opacity="1"
           stroke-width="4"
           data-darkreader-inline-fill=""
           data-darkreader-inline-stroke=""
           id="path12"
           style="fill:#cf25c1;fill-opacity:1" /></g></g><path
       style="display:inline;fill:#415e73;fill-opacity:1;stroke:#000000;stroke-width:0.547833;stroke-linecap:butt;stroke-linejoin:miter;stroke-dasharray:none;stroke-opacity:1"
       d="M 48.174776,23.859239 C 42.753804,21.328791 33.086556,38.02048 23.008713,42.177393 12.930869,46.334306 6.1599945,52.465852 6.0601396,66.145072 c -0.099856,13.67922 6.8828064,16.758117 16.7773754,20.201337 9.209778,-1.521528 16.074306,-9.531824 21.742109,-8.217497 5.667803,1.314327 3.695348,10.214497 10.271862,9.758276 C 60.400815,79.042272 67.854014,70.8335 74.02563,64.261898 75.403709,53.752748 61.082699,51.064188 56.221068,44.574161 51.359437,38.084134 53.595747,26.389686 48.174776,23.859239 Z"
       id="path15-0"
       sodipodi:nodetypes="ccccccccc" /><path
       style="fill:#86bfe9;fill-opacity:1;stroke:#000000;stroke-width:0.4;stroke-linecap:butt;stroke-linejoin:miter;stroke-dasharray:none;stroke-opacity:1"
       d="m 6.041926,56.076744 c 5.849835,-2.853492 6.566,4.637532 13.75,8.5 7.184,3.862468 28,13.75 29.75,13.75 1.75,0 13.233544,3.490151 20,9.75 6.766456,6.259849 11.107744,14.139646 10.75,21.999996 -0.357744,7.86035 8.351794,14.51181 -2.25,18 -10.601794,3.48819 -37.576023,-7.10755 -50.25,-16.25 -12.673977,-9.14245 -21.4926994,-22.723664 -24.25,-32.999996 -2.75730057,-10.276332 -3.34983541,-19.896508 2.5,-22.75 z"
       id="path16"
       sodipodi:nodetypes="zzzzzzzzz" /><path
       style="display:inline;fill:#376e97;fill-opacity:1;stroke:#000000;stroke-width:0.4;stroke-linecap:butt;stroke-linejoin:miter;stroke-dasharray:none;stroke-opacity:1"
       d="m 73.056293,58.408146 c -5.849835,-2.853492 -6.566,4.637532 -13.75,8.5 -7.184,3.862468 -28,13.75 -29.75,13.75 -1.75,0 -13.233544,3.490151 -20.0000002,9.75 -6.766456,6.259849 -6.607744,23.639644 -5.75,24.749994 0.857744,1.11035 -5.351794,14.51181 -2.75,15.25 2.601794,0.73819 37.5760232,-7.10755 50.2500002,-16.25 12.673977,-9.14245 21.492699,-22.723662 24.25,-32.999994 2.757301,-10.276332 3.349835,-19.896508 -2.5,-22.75 z"
       id="path16-6"
       sodipodi:nodetypes="zzzzzzzzz" /><path
       style="fill:#4c9edb;fill-opacity:1;stroke:#000000;stroke-width:0.4;stroke-linecap:butt;stroke-linejoin:miter;stroke-dasharray:none;stroke-opacity:1"
       d="m 8.541926,92.076744 c 21.853686,12.976746 45.741223,7.236541 64.5,-1.25 7.758777,8.763459 9.520998,27.043786 11.5,43.749996 -8.520998,-13.79379 -12.489167,-15.57289 -11.75,-28 -4.510833,16.32289 -6.054107,17.35271 -10.25,29.5 -6.195893,-12.1027 -17.116767,-22.3295 -18.75,-27.75 -2.383233,8.0795 -7.71354,17.32519 -16.5,30.75 -2.03646,-14.82519 -2.57844,-17.03386 -2.25,-26.5 -6.92156,11.53386 -12.260549,18.78593 -23.5,27.25 1.5105489,-6.78593 0.1463138,-46.476743 7,-47.749996 z"
       id="path19"
       sodipodi:nodetypes="cccccccccc" /></g><g
     inkscape:groupmode="layer"
     id="layer3"
     inkscape:label="Head"
     style="display:inline"
     transform="translate(110.95779,-15.223994)"><path
       style="display:inline;fill:#3e6e92;fill-opacity:1;stroke:#000000;stroke-width:0.4;stroke-linecap:butt;stroke-linejoin:miter;stroke-dasharray:none;stroke-opacity:1"
       d="m 36.95914,21.451744 c -3.958122,-1.847606 -11.016663,10.33983 -18.375,13.375 -7.358337,3.03517 -12.3020907,7.512118 -12.375,17.5 -0.072909,9.987882 5.025481,12.235938 12.25,14.75 6.724519,-1.110938 11.736654,-6.959656 15.875,-6 4.138346,0.959656 2.698158,7.45811 7.5,7.125 4.051842,-6.45811 9.493795,-12.451745 14,-17.25 1.006205,-7.673255 -9.45028,-9.636307 -13,-14.375 -3.54972,-4.738693 -1.916878,-13.277394 -5.875,-15.125 z"
       id="path15"
       sodipodi:nodetypes="ccccccccc" /><path
       style="display:inline;fill:#2586cf;fill-opacity:1;stroke:#000000;stroke-width:0.4;stroke-linecap:butt;stroke-linejoin:miter;stroke-dasharray:none;stroke-opacity:1"
       d="m 13.523148,43.454199 c 1.633481,2.875184 8.678391,8.183857 12.109204,9.899495 3.430812,1.715639 3.854716,2.569701 7.159456,1.767767 3.30474,-0.801933 7.115525,-7.222524 9.811107,-8.57367 2.695582,-1.351145 2.849879,2.431921 4.949744,-1.06066 2.099865,-3.49258 -6.251004,-14.879331 -5.303298,-18.649941 0.947705,-3.770609 2.242927,-1.526621 2.740038,-2.828427 0.497111,-1.301806 2.20087,-2.043369 -0.17678,-4.419418 C 42.434969,17.213297 33.151364,14.448556 26.829497,16.970627 15.50763,21.867698 11.9578,29.191886 12.90443,39.299947 c -1.30337,4.858061 -1.014764,1.279068 0.618718,4.154252 z"
       id="path13"
       sodipodi:nodetypes="ccccccccccc" /><path
       style="fill:#000000;fill-opacity:1;stroke:none;stroke-width:1px;stroke-linecap:butt;stroke-linejoin:miter;stroke-opacity:1"
       d="m 19.030954,37.097821 c 2.25875,5.511982 8.76273,8.018689 13.135854,9.120465 2.95891,0.350475 6.720108,-2.976254 10.967738,-5.274271 1.242426,-0.839609 -2.733217,-9.583287 -2.255204,-12.869388 0.478013,-3.286101 1.161698,-5.408508 2.828427,-5.126524 -0.145232,-1.264812 -2.155146,0.08405 -3.068243,-0.450826 -1.487621,-0.667461 -0.676911,-0.293592 -6.499145,-0.04419 -4.761574,1.884587 -13.47909,10.149218 -15.109427,14.644734 z"
       id="path6"
       sodipodi:nodetypes="cccccccc" /><circle
       style="opacity:0.426374;fill:#2586cf;fill-opacity:1;stroke:none;stroke-width:0.4;stroke-linecap:round;stroke-linejoin:round;stroke-dasharray:none"
       id="path18"
       cx="29.035307"
       cy="32.538239"
       r="2.2980971" /><circle
       style="display:inline;opacity:0.426374;fill:#2586cf;fill-opacity:1;stroke:none;stroke-width:0.4;stroke-linecap:round;stroke-linejoin:round;stroke-dasharray:none"
       id="path18-9"
       cx="36.839344"
       cy="31.354471"
       r="2.2980971" /></g><g
     inkscape:groupmode="layer"
     id="layer4"
     inkscape:label="Weapon"
     transform="translate(34.957793,3.2760057)"><g
       id="g3"
       transform="matrix(0.11010958,0,0,0.11010958,76.254278,55.464833)"><path
         d="m 375.563,15.344 c -3.744,-0.036 -7.46,0.797 -10.875,2.906 -6.406,3.954 -9.283,10.876 -10.188,17.875 v 0.03 C 295.595,135.995 213.213,186.879 119.97,244.345 102.228,251.357 90.908,264.957 85.78,279.5 69.89,274.188 62.302,261.695 62.812,254.187 l -18.656,-1.28 c -1.278,18.792 13.092,36.91 35.688,44.312 l -1.656,0.5 c -36.15,26.775 -70.78,89.097 -39.688,163.31 6.443,15.38 17.065,24.21 29.625,28.908 12.56,4.697 27.19,4.848 40,1.468 12.81,-3.38 23.52,-10.32 28.813,-18.094 5.29,-7.773 6.53,-15.74 0.062,-27.03 -13.84,-24.154 -28.63,-50.166 -24.5,-77.282 0.56307,-3.2411 2.87144,-12.45765 6.44404,-18.87615 15.69398,-35.26585 64.88218,-46.58965 65.09045,-45.84888 19.00437,67.59259 -52.3325,64.69098 -64.93414,46.70129 -2.03941,-2.91141 -4.7647,18.73924 -5.54338,20.27065 26.55108,12.93296 58.41632,8.3132 76.09903,-7.80991 19.28,-17.577 26.135,-48.276 10.125,-77.593 79.474,-47.578 156.44,-86.004 256.064,-92.094 3.965,0.776 8.044,0.766 11.906,-0.53 0.022,-0.01 0.04,-0.025 0.063,-0.032 0.688,-0.024 1.37,-0.042 2.062,-0.063 l -0.375,-0.594 c 0.75,-0.336 1.494,-0.707 2.22,-1.155 6.83,-4.218 9.65,-11.82 10.342,-19.28 0.693,-7.463 -0.39,-15.725 -2.687,-24.907 -4.592,-18.366 -14.277,-40.386 -28.125,-62.782 -13.848,-22.396 -29.212,-40.93 -43.594,-53.25 -7.19,-6.16 -14.108,-10.812 -21.094,-13.53 -3.492,-1.36 -7.256,-2.246 -11,-2.282 z"
         class=""
         fill="#ffffff"
         fill-opacity="1"
         stroke="#000000"
         stroke-opacity="1"
         stroke-width="4"
         data-darkreader-inline-fill=""
         data-darkreader-inline-stroke=""
         id="path1"
         style="fill:#2586cf;fill-opacity:1"
         sodipodi:nodetypes="scccccccccccsccccsscccccccccccsccs" /><path
         d="m 375.188,34 c 0.148,-0.01 0.326,-0.01 0.53,0 0.82,0.043 2.094,0.296 4.063,1.063 3.94,1.532 9.573,5.047 15.72,10.312 12.293,10.53 26.843,27.85 39.844,48.875 13,21.026 21.982,41.773 25.906,57.47 1.962,7.846 2.61,14.454 2.22,18.655 -0.39,4.2 -1.468,5.066 -1.564,5.125 -0.095,0.06 -1.343,0.595 -5.28,-0.938 -3.94,-1.532 -9.542,-5.047 -15.688,-10.312 C 428.645,153.72 414.065,136.4 401.064,115.375 388.062,94.349 379.081,73.602 375.157,57.905 373.195,50.059 372.58,43.451 372.97,39.25 c 0.39,-4.2 1.435,-5.035 1.53,-5.094 0.036,-0.022 0.24,-0.125 0.688,-0.156 z"
         class=""
         fill="#ffffff"
         fill-opacity="1"
         stroke="#000000"
         stroke-opacity="1"
         stroke-width="4"
         data-darkreader-inline-fill=""
         data-darkreader-inline-stroke=""
         id="path2-4"
         style="fill:#203a4d;fill-opacity:1" /></g></g><g
     inkscape:groupmode="layer"
     id="layer5"
     inkscape:label="BootLeft"
     transform="translate(82.457793,-108.22399)"><path
       style="fill:#3b2e10;fill-opacity:1;stroke:#000000;stroke-width:0.6;stroke-linecap:butt;stroke-linejoin:miter;stroke-dasharray:none;stroke-opacity:1"
       d="m 21.094568,134.99246 v 22.35566 h 8.066477 v 10.71689 H 3.7516433 v -33.13017 z"
       id="path7"
       sodipodi:nodetypes="ccccccc" /><rect
       style="opacity:1;fill:#ac7a01;fill-opacity:1;stroke:none;stroke-width:0.6;stroke-linecap:round;stroke-linejoin:round;stroke-dasharray:none;stroke-opacity:1"
       id="rect11"
       width="11.978106"
       height="1.8741241"
       x="8.8310003"
       y="145.28546" /><rect
       style="opacity:1;fill:#ac7a01;fill-opacity:1;stroke:none;stroke-width:0.6;stroke-linecap:round;stroke-linejoin:round;stroke-dasharray:none;stroke-opacity:1"
       id="rect12"
       width="11.978106"
       height="1.8741241"
       x="8.8310003"
       y="141.29276" /><rect
       style="opacity:1;fill:#ac7a01;fill-opacity:1;stroke:none;stroke-width:0.6;stroke-linecap:round;stroke-linejoin:round;stroke-dasharray:none;stroke-opacity:1"
       id="rect13"
       width="11.978106"
       height="1.8741241"
       x="8.8310003"
       y="149.03371" /><rect
       style="opacity:1;fill:#ac7a01;fill-opacity:1;stroke:none;stroke-width:0.6;stroke-linecap:round;stroke-linejoin:round;stroke-dasharray:none;stroke-opacity:1"
       id="rect14"
       width="11.978106"
       height="1.8741241"
       x="8.8310003"
       y="152.78195" /></g></svg>
