<?xml version="1.0" encoding="UTF-8" standalone="no"?>
<!-- Created with Inkscape (http://www.inkscape.org/) -->

<svg
   width="171.14348"
   height="113.90488"
   viewBox="0 0 171.14348 113.90488"
   version="1.1"
   id="svg1"
   inkscape:version="1.3.2 (091e20e, 2023-11-25, custom)"
   sodipodi:docname="player_melee_exploded.svg"
   xml:space="preserve"
   xmlns:inkscape="http://www.inkscape.org/namespaces/inkscape"
   xmlns:sodipodi="http://sodipodi.sourceforge.net/DTD/sodipodi-0.dtd"
   xmlns="http://www.w3.org/2000/svg"
   xmlns:svg="http://www.w3.org/2000/svg"><sodipodi:namedview
     id="namedview1"
     pagecolor="#ffffff"
     bordercolor="#666666"
     borderopacity="1.0"
     inkscape:showpageshadow="2"
     inkscape:pageopacity="0.0"
     inkscape:pagecheckerboard="0"
     inkscape:deskcolor="#d1d1d1"
     inkscape:document-units="px"
     inkscape:zoom="4.3389452"
     inkscape:cx="-1.8437661"
     inkscape:cy="77.783882"
     inkscape:window-width="2498"
     inkscape:window-height="1057"
     inkscape:window-x="-8"
     inkscape:window-y="-8"
     inkscape:window-maximized="1"
     inkscape:current-layer="layer4"><inkscape:page
       x="0"
       y="0"
       width="171.14348"
       height="113.90488"
       id="page14"
       margin="0"
       bleed="0" /><inkscape:page
       x="-0.74414748"
       y="-0.69140494"
       width="512"
       height="512"
       id="page15"
       margin="0"
       bleed="0" /></sodipodi:namedview><defs
     id="defs1" /><g
     inkscape:groupmode="layer"
     id="layer7"
     inkscape:label="Shadow"
     style="opacity:0.426374"
     transform="translate(-146.53186,-0.6914046)"><ellipse
       style="opacity:1;fill:#000000;fill-opacity:1;stroke:none;stroke-width:0.6;stroke-linecap:round;stroke-linejoin:round;stroke-dasharray:none;stroke-opacity:1"
       id="path14"
       cx="204.08186"
       cy="12.214943"
       rx="57.549999"
       ry="11.523538" /></g><g
     inkscape:groupmode="layer"
     id="layer3"
     inkscape:label="Head"
     style="display:inline"
     transform="translate(-146.53186,-0.6914046)"><g
       id="g5"
       transform="matrix(0.12054964,0,0,0.12054964,261.08275,-1.7523008)"><path
         d="m 295.2,24.44 c -65.6,0.74 -123.5,49.54 -142.3,103.66 11.8,1.9 23.5,3.6 35.2,4.6 -12.2,2 -24.4,4.2 -37.9,4.4 -16.1,10.6 -11.7,21.5 -3.3,32.1 28.4,4.5 59.5,-0.3 90.7,-4.9 -27.1,11 -55.3,20.1 -87.9,21.8 18.8,8.9 37.9,48.5 17.7,63.8 2.1,1 12.3,25.5 14.6,25.9 19.1,3.1 41.2,-27.6 47.6,-53.4 6.7,-18.1 19.2,-32 35.2,-29.4 59.6,9.8 151.6,-28.6 183.4,-78.2 3.9,-3.2 10.2,-8.1 -0.3,-13.7 -18.8,6.3 -38.6,10.3 -59.9,11 20.1,-6.2 39.2,-13.88 57.9,-22.84 8.5,-16.72 -8.4,-31.31 -24.4,-26 C 390.5,88.83 355.8,110 312.9,121.8 348.7,102 380,78.59 410.6,52.06 410.7,44.83 400.4,34.25 383.5,40.93 355.3,29.01 322.5,24.61 295.2,24.44 Z"
         class="selected"
         fill="#ffffff"
         fill-opacity="1"
         stroke="#000000"
         stroke-opacity="1"
         stroke-width="4"
         data-darkreader-inline-fill=""
         data-darkreader-inline-stroke=""
         id="path1-7"
         style="fill:#397221;fill-opacity:1" /><path
         d="M 452.9,131 C 394.09643,214.03843 248.01107,213.87786 248.01107,213.87786 247.91107,241.07786 203.2,286.1 189.2,290.8 c -2.6,31 24.8986,103.97061 -0.3014,128.27061 55.04237,-4.5958 51.32965,-1.257 131.32965,6.643 7.5,-26.9 77.20066,-30.91189 103.27697,-60.64517 C 493.19048,285.61047 461.17719,178.75646 452.9,131 Z"
         class=""
         fill="#ffffff"
         fill-opacity="1"
         stroke="#000000"
         stroke-opacity="1"
         stroke-width="4"
         data-darkreader-inline-fill=""
         data-darkreader-inline-stroke=""
         id="path2"
         sodipodi:nodetypes="cccccsc"
         style="fill:#669353;fill-opacity:1" /><path
         d="m 134.7,195.6 c -0.4,-0.1 -0.8,0 -1.2,0 -19.4,4.6 -19.2,31 -13.4,42.9 11.2,8.3 36,5.6 43,-6.3 -1.7,-13.5 -16.4,-36.4 -28.4,-36.6 z"
         class=""
         fill="#ffffff"
         fill-opacity="1"
         stroke="#000000"
         stroke-opacity="1"
         stroke-width="4"
         data-darkreader-inline-fill=""
         data-darkreader-inline-stroke=""
         id="path3"
         style="fill:#79a368;fill-opacity:1" /><path
         d="M 102.4,227.2 C 23.64,232.4 1.759,362.5 57.83,369.7 51.16,334.6 75.74,279.1 117.6,251.6 113.7,250.7 99.18,231.9 102.4,227.2 Z"
         class=""
         fill="#ffffff"
         fill-opacity="1"
         stroke="#000000"
         stroke-opacity="1"
         stroke-width="4"
         data-darkreader-inline-fill=""
         data-darkreader-inline-stroke=""
         id="path4"
         style="fill:#8fc37a;fill-opacity:1" /><path
         d="m 155.9,255 c -3.3,4.1 -23.7,4.5 -29.9,-0.5 -59.88,57.1 -28.61,146 -10.1,181.9 5.2,-28.1 56.6,-106.9 40,-181.4 z"
         class=""
         fill="#ffffff"
         fill-opacity="1"
         stroke="#000000"
         stroke-opacity="1"
         stroke-width="4"
         data-darkreader-inline-fill=""
         data-darkreader-inline-stroke=""
         id="path5"
         style="fill:#a0df86;fill-opacity:1" /></g></g><g
     inkscape:groupmode="layer"
     id="layer8"
     inkscape:label="Body"
     style="display:inline"
     transform="translate(-7.3750626,-49.320736)"><g
       id="g9"
       transform="matrix(0.13160345,0,0,0.13160345,3.9708842,73.758225)"
       style="display:inline"><path
         d="M 129.656,21.188 37.936,79.78 c 3.54,26.805 8.915,53.547 16.127,80.126 L 240.72,39.594 221.438,27.094 c -31.28,-0.885 -62.204,-2.842 -91.782,-5.907 z"
         class="selected"
         fill="#ffffff"
         fill-opacity="1"
         stroke="#000000"
         stroke-opacity="1"
         stroke-width="4"
         data-darkreader-inline-fill=""
         data-darkreader-inline-stroke=""
         id="path1-9"
         style="fill:#397221;fill-opacity:1" /><path
         d="m 383.126,21.813 c -40.51,3.975 -83.496,5.938 -126.47,5.843 l 204.625,132.72 c 7.108,-25.89 12.487,-51.92 16.095,-78.032 l -94.25,-60.53 z"
         class=""
         fill="#ffffff"
         fill-opacity="1"
         stroke="#000000"
         stroke-opacity="1"
         stroke-width="4"
         data-darkreader-inline-fill=""
         data-darkreader-inline-stroke=""
         id="path2-2"
         style="fill:#5bf71b;fill-opacity:1" /><path
         d="M 257.937,50.75 59.468,178.656 c 8.025,26.32 17.865,52.456 29.532,78.313 l 243.25,-158 -74.313,-48.22 z"
         class=""
         fill="#ffffff"
         fill-opacity="1"
         stroke="#000000"
         stroke-opacity="1"
         stroke-width="4"
         data-darkreader-inline-fill=""
         data-darkreader-inline-stroke=""
         id="path3-0"
         style="fill:#669353;fill-opacity:1" /><path
         d="m 349.405,110.094 -74.562,48.437 151.28,98.782 c 11.714,-25.803 21.592,-51.91 29.688,-78.187 l -106.406,-69.03 z"
         class=""
         fill="#ffffff"
         fill-opacity="1"
         stroke="#000000"
         stroke-opacity="1"
         stroke-width="4"
         data-darkreader-inline-fill=""
         data-darkreader-inline-stroke=""
         id="path4-27"
         style="fill:#64e42f;fill-opacity:1" /><path
         d="M 257.718,169.656 97,274.062 c 12.202,25.17 26.14,50.064 41.844,74.563 l 196.094,-128.53 -77.22,-50.44 z"
         class=""
         fill="#ffffff"
         fill-opacity="1"
         stroke="#000000"
         stroke-opacity="1"
         stroke-width="4"
         data-darkreader-inline-fill=""
         data-darkreader-inline-stroke=""
         id="path5-4"
         style="fill:#79a368;fill-opacity:1" /><path
         d="m 352,231.22 -77.53,50.843 101.405,67.187 c 15.822,-24.6 29.895,-49.584 42.22,-74.875 z"
         class=""
         fill="#ffffff"
         fill-opacity="1"
         stroke="#000000"
         stroke-opacity="1"
         stroke-width="4"
         data-darkreader-inline-fill=""
         data-darkreader-inline-stroke=""
         id="path6-5"
         style="fill:#6fda44;fill-opacity:1" /><path
         d="m 257.47,293.188 -108.345,71.03 c 13.564,20.062 28.326,39.847 44.28,59.313 l 132.032,-85.28 -67.968,-45.063 z"
         class=""
         fill="#ffffff"
         fill-opacity="1"
         stroke="#000000"
         stroke-opacity="1"
         stroke-width="4"
         data-darkreader-inline-fill=""
         data-darkreader-inline-stroke=""
         id="path7-2"
         style="fill:#8fc37a;fill-opacity:1" /><path
         d="m 342.437,349.5 -67.937,43.906 47.03,30.375 c 15.845,-19.342 30.513,-38.993 44.033,-58.936 L 342.438,349.5 Z"
         class=""
         fill="#ffffff"
         fill-opacity="1"
         stroke="#000000"
         stroke-opacity="1"
         stroke-width="4"
         data-darkreader-inline-fill=""
         data-darkreader-inline-stroke=""
         id="path8-7"
         style="fill:#7edd57;fill-opacity:1" /><path
         d="M 257.469,404.375 205.5,437.97 c 16.233,18.933 33.614,37.54 52.156,55.78 18.385,-18.152 35.637,-36.678 51.78,-55.53 l -52.092,-33.626 0.125,-0.22 z"
         class=""
         fill="#ffffff"
         fill-opacity="1"
         stroke="#000000"
         stroke-opacity="1"
         stroke-width="4"
         data-darkreader-inline-fill=""
         data-darkreader-inline-stroke=""
         id="path9-1"
         style="fill:#a0df86;fill-opacity:1" /></g></g><g
     inkscape:groupmode="layer"
     id="layer4"
     inkscape:label="Weapon"
     transform="translate(50.751103,2.5351854)"><g
       transform="matrix(0,-0.12080952,0.12080952,0,53.845187,113.00313)"
       id="g6"><path
         d="m 81.875,17.375 c -6.078,0.165 -12.153,2.38 -17.094,6.688 -9.804,8.546 -11.978,22.59 -5.936,33.53 -10.02,-7.47 -24.227,-7.263 -34.032,1.282 -11.293,9.843 -12.472,26.992 -2.625,38.28 6.045,6.93 14.84,10.06 23.344,9.157 l 63.19,-54.406 c 2.403,-8.518 0.597,-18.05 -5.657,-25.218 -5.54,-6.35 -13.373,-9.525 -21.188,-9.313 z"
         class="selected"
         fill="#ffffff"
         fill-opacity="1"
         stroke="#000000"
         stroke-opacity="1"
         stroke-width="4"
         data-darkreader-inline-fill=""
         data-darkreader-inline-stroke=""
         id="path1"
         style="fill:#56cf25;fill-opacity:1" /><path
         d="M 110.22,75.25 71.624,108.5 c 5.35,3.492 10.94,7.496 16.656,11.97 l 33.626,-20.94 c -4.268,-7.612 -8.187,-15.678 -11.687,-24.28 z"
         class=""
         fill="#ffffff"
         fill-opacity="1"
         stroke="#000000"
         stroke-opacity="1"
         stroke-width="4"
         data-darkreader-inline-fill=""
         data-darkreader-inline-stroke=""
         id="path2-6"
         style="fill:#4eab28;fill-opacity:1" /><path
         d="m 131.75,115.406 -28.344,17.688 c 6.735,5.947 13.518,12.4 20.22,19.187 l 21.624,-19.25 c -0.196,-0.126 -0.398,-0.246 -0.594,-0.374 -4.53,-5.505 -8.826,-11.246 -12.906,-17.25 z"
         class=""
         fill="#ffffff"
         fill-opacity="1"
         stroke="#000000"
         stroke-opacity="1"
         stroke-width="4"
         data-darkreader-inline-fill=""
         data-darkreader-inline-stroke=""
         id="path3-8"
         style="fill:#46862c;fill-opacity:1" /><path
         d="m 162.094,143.031 -29.22,26.032 c 5.28,11.427 9.843,22.932 12.69,33.938 l 43.874,-46.97 c -9.375,-3.84 -18.516,-8.185 -27.344,-13 z"
         class=""
         fill="#ffffff"
         fill-opacity="1"
         stroke="#000000"
         stroke-opacity="1"
         stroke-width="4"
         data-darkreader-inline-fill=""
         data-darkreader-inline-stroke=""
         id="path4-2"
         style="fill:#4eab28;fill-opacity:1" /><path
         d="m 208.438,163.031 -59.75,64 c -0.29,31.004 20.253,46.52 34.156,46.75 7.01,0.117 12.22,-2.365 15.812,-10.25 3.592,-7.883 4.758,-22.46 -2.03,-44.592 l -6.095,-19.875 18.907,8.625 c 30.374,13.842 47.987,4.07 52.532,-5.75 2.27,-4.91 2.154,-10.26 -2.064,-16.25 -4.218,-5.992 -13.203,-12.525 -29.094,-16.313 -7.53,-1.796 -14.994,-3.922 -22.375,-6.344 z"
         class=""
         fill="#ffffff"
         fill-opacity="1"
         stroke="#000000"
         stroke-opacity="1"
         stroke-width="4"
         data-darkreader-inline-fill=""
         data-darkreader-inline-stroke=""
         id="path5-3"
         style="fill:#56cf25;fill-opacity:1" /><path
         d="m 253.813,230.501 c -9.954,3.04 -21.965,3.365 -35.125,0.125 2.97,16.655 1.766,30.126 -3.032,40.656 -0.087,0.193 -0.19,0.374 -0.28,0.564 29.997,31.006 42.134,75.278 21.186,116.875 38.333,69.668 145.578,127.334 256.844,96.217 C 313.382,411.608 377.091,325.258 253.812,230.501 Z"
         class=""
         fill="#ffffff"
         fill-opacity="1"
         stroke="#000000"
         stroke-opacity="1"
         stroke-width="4"
         data-darkreader-inline-fill=""
         data-darkreader-inline-stroke=""
         id="path6"
         style="fill:#a0df86;fill-opacity:1" /></g></g><g
     inkscape:groupmode="layer"
     id="layer6"
     inkscape:label="BootRight"
     transform="translate(32.543915,-107.39937)"><path
       style="fill:#3b2e10;fill-opacity:1;stroke:#000000;stroke-width:0.6;stroke-linecap:butt;stroke-linejoin:miter;stroke-dasharray:none;stroke-opacity:1"
       d="m 55.314832,134.79246 v 22.41328 l 6.683652,-0.23047 v 10.71689 H 36.589082 v -33.13017 z"
       id="path7-3"
       sodipodi:nodetypes="ccccccc" /><rect
       style="opacity:1;fill:#ac7a01;fill-opacity:1;stroke:none;stroke-width:0.6;stroke-linecap:round;stroke-linejoin:round;stroke-dasharray:none;stroke-opacity:1"
       id="rect7"
       width="11.978106"
       height="1.8741241"
       x="42.931"
       y="145.28546" /><rect
       style="opacity:1;fill:#ac7a01;fill-opacity:1;stroke:none;stroke-width:0.6;stroke-linecap:round;stroke-linejoin:round;stroke-dasharray:none;stroke-opacity:1"
       id="rect8"
       width="11.978106"
       height="1.8741241"
       x="42.931"
       y="141.29276" /><rect
       style="opacity:1;fill:#ac7a01;fill-opacity:1;stroke:none;stroke-width:0.6;stroke-linecap:round;stroke-linejoin:round;stroke-dasharray:none;stroke-opacity:1"
       id="rect9"
       width="11.978106"
       height="1.8741241"
       x="42.931"
       y="149.03371" /><rect
       style="opacity:1;fill:#ac7a01;fill-opacity:1;stroke:none;stroke-width:0.6;stroke-linecap:round;stroke-linejoin:round;stroke-dasharray:none;stroke-opacity:1"
       id="rect10"
       width="11.978106"
       height="1.8741241"
       x="42.931"
       y="152.78195" /></g></svg>
