<?xml version="1.0" encoding="UTF-8" standalone="no"?>
<!-- Created with Inkscape (http://www.inkscape.org/) -->

<svg
   width="160.1713"
   height="221.1722"
   viewBox="0 0 160.1713 221.1722"
   version="1.1"
   id="svg1"
   inkscape:version="1.3.2 (091e20e, 2023-11-25, custom)"
   sodipodi:docname="player_tank_exploded_enemy.svg"
   xml:space="preserve"
   xmlns:inkscape="http://www.inkscape.org/namespaces/inkscape"
   xmlns:sodipodi="http://sodipodi.sourceforge.net/DTD/sodipodi-0.dtd"
   xmlns="http://www.w3.org/2000/svg"
   xmlns:svg="http://www.w3.org/2000/svg"><sodipodi:namedview
     id="namedview1"
     pagecolor="#ffffff"
     bordercolor="#666666"
     borderopacity="1.0"
     inkscape:showpageshadow="2"
     inkscape:pageopacity="0.0"
     inkscape:pagecheckerboard="0"
     inkscape:deskcolor="#d1d1d1"
     inkscape:document-units="px"
     inkscape:zoom="3.0680976"
     inkscape:cx="-35.852836"
     inkscape:cy="29.171171"
     inkscape:window-width="2498"
     inkscape:window-height="1057"
     inkscape:window-x="-8"
     inkscape:window-y="-8"
     inkscape:window-maximized="1"
     inkscape:current-layer="layer3"><inkscape:page
       x="0"
       y="0"
       width="160.1713"
       height="221.1722"
       id="page14"
       margin="0"
       bleed="0" /><inkscape:page
       x="-0.97461331"
       y="-1.1523485"
       width="512"
       height="512"
       id="page15"
       margin="0"
       bleed="0" /></sodipodi:namedview><defs
     id="defs1" /><g
     inkscape:groupmode="layer"
     id="layer7"
     inkscape:label="Shadow"
     style="opacity:0.426374"
     transform="translate(-146.76233,-1.1523485)"><ellipse
       style="opacity:1;fill:#000000;fill-opacity:1;stroke:none;stroke-width:0.6;stroke-linecap:round;stroke-linejoin:round;stroke-dasharray:none;stroke-opacity:1"
       id="path14"
       cx="204.31233"
       cy="12.675886"
       rx="57.549999"
       ry="11.523538" /></g><g
     inkscape:groupmode="layer"
     id="layer3"
     inkscape:label="Head"
     style="display:inline"
     transform="translate(112.2868,5.7617742)"><rect
       style="display:inline;fill:#ff0021;fill-opacity:1;stroke-width:0.4;stroke-linecap:round;stroke-linejoin:round"
       id="rect1"
       width="12.272568"
       height="8.1817122"
       x="32.564075"
       y="28.981691" /><g
       id="g8"
       transform="matrix(0.16765964,0,0,0.16765964,-18.973295,-26.651838)"
       style="display:inline;fill:#000000;fill-opacity:1"><path
         d="m 181.992,134.398 c -6.112,3.028 -12,6.54 -17.612,10.532 17.55,8.862 29.7,22.763 34.715,39.594 4.936,-3.84 49.25718,-26.08722 128.98934,-4.19617 -6.122,-16.257 76.29224,-37.25657 61.20324,-47.23357 z"
         class=""
         fill="#ffffff"
         fill-opacity="1"
         stroke="#000000"
         stroke-opacity="1"
         stroke-width="4"
         data-darkreader-inline-fill=""
         data-darkreader-inline-stroke=""
         id="path5-9"
         sodipodi:nodetypes="cccccc"
         style="fill:#000000;fill-opacity:1" /><path
         d="m 270.128,179.194 c -1.156,-0.002 -2.308,0.014 -3.457,0.047 -2.675,0.076 -5.328,0.242 -7.952,0.502 -41.993,4.176 -77.31,30.258 -87.475,90.07 -2.198,12.94 4.293,42.822 12.246,67.66 7.952,24.836 16.634,45.517 16.634,45.517 l 0.504,1.198 0.143,1.295 c 1.96,17.7 -9.11,34.967 -21.212,52.26 -8.036,11.486 -16.43,22.104 -23.97,31.72 24,-1.35 51.17796,4.96361 72.39196,-13.99839 l 6.4743,-32.92561 c 0.446,-9.983 9.82625,-17.5016 2.52126,-46.20913 -7.30499,-28.70754 -25.6032,-32.11195 -9.08081,-95.18733 l 41.87787,-11.82391 C 329.1759,246.96961 339.52689,243.2579 362.376,213.351 334.81,191.471 301.178,179.236 270.126,179.193 Z"
         class=""
         fill="#ffffff"
         fill-opacity="1"
         stroke="#000000"
         stroke-opacity="1"
         stroke-width="4"
         data-darkreader-inline-fill=""
         data-darkreader-inline-stroke=""
         id="path6-1"
         sodipodi:nodetypes="cccccccccccczccccc"
         style="fill:#000000;fill-opacity:1" /><path
         d="m 390.325,217.034 c -48.424,30.517 -91.56,55.67 -157.556,67.35 -3.253,33.408 -8.65479,61.41008 14.14421,90.36808 12.607,0.61 -18.45566,86.50511 -11.81566,95.71211 69.45453,-20.63189 88.51569,-15.32677 161.39545,21.18481 -3.17,-39.444 -0.296,-76.34 -14.538,-114.11 l -47.28978,-19.46792 c -9.74007,-5.70506 -19.42058,-6.56522 -22.68595,-18.22492 -3.18,-10.236 60.57766,27.37095 67.79454,22.45881 l 10.02904,-7.28218 0.99415,-44.33179 -0.472,-93.659 z"
         class=""
         fill="#ffffff"
         fill-opacity="1"
         stroke="#000000"
         stroke-opacity="1"
         stroke-width="4"
         data-darkreader-inline-fill=""
         data-darkreader-inline-stroke=""
         id="path7-4"
         sodipodi:nodetypes="ccccccccccccc"
         style="fill:#000000;fill-opacity:1" /></g></g><g
     inkscape:groupmode="layer"
     id="layer8"
     inkscape:label="Body"
     style="display:inline"
     transform="translate(18.8986,-23.277542)"><g
       class=""
       transform="matrix(0.22633626,0,0,0.22633626,-18.979201,32.848173)"
       id="g13"
       style="fill:#000000;fill-opacity:1"><g
         id="g12"
         style="fill:#000000;fill-opacity:1"><path
           d="m 148.96782,80.370958 c -20.642,13.654 -46.023,22.503002 -69.437996,26.030002 6.792,48.935 26.139996,84.133 45.969996,97.845 10.523,7.28 20.357,9.012 30.405,5.564 8.93,-3.064 18.63,-10.97 27.75,-25.594 -26.933,-30.227 -31.606,-71.05 -34.686,-103.844002 z"
           class=""
           fill="#ffffff"
           fill-opacity="1"
           stroke="#000000"
           stroke-opacity="1"
           stroke-width="4"
           data-darkreader-inline-fill=""
           data-darkreader-inline-stroke=""
           id="path1-7"
           style="fill:#000000;fill-opacity:1" /><path
           d="m 364.12618,81.116828 c -3.08,32.790002 -7.787,73.580002 -34.72,103.780002 9.117,14.61 18.857,22.5 27.783,25.564 10.047,3.448 19.85,1.715 30.375,-5.563 19.8,-13.693 39.12,-48.822 45.937,-97.655 -24.495,-3.17 -47.802,-11.350002 -69.375,-26.125002 z"
           class=""
           fill="#ffffff"
           fill-opacity="1"
           stroke="#000000"
           stroke-opacity="1"
           stroke-width="4"
           data-darkreader-inline-fill=""
           data-darkreader-inline-stroke=""
           id="path2"
           style="fill:#000000;fill-opacity:1" /><path
           d="m 256.5,88.22 c -31.2,0 -58.752,6.99 -75.47,17.655 0.988,5.463 2.15,10.912 3.564,16.25 16.138,-6.942 42.334,-11.47 71.937,-11.47 29.604,0 55.8,4.528 71.94,11.47 1.412,-5.338 2.575,-10.787 3.56,-16.25 C 315.31,95.203 287.716,88.22 256.5,88.22 Z"
           class=""
           fill="#ffffff"
           fill-opacity="1"
           stroke="#000000"
           stroke-opacity="1"
           stroke-width="4"
           data-darkreader-inline-fill=""
           data-darkreader-inline-stroke=""
           id="path3"
           style="fill:#000000;fill-opacity:1" /><path
           d="m 75.406,132.374 -47.72,45.47 c 29.75,37.184 63.04,56.826 86.47,58.718 1.145,0.092 2.253,0.135 3.344,0.156 1.792,-7.583 3.963,-15.05 6.5,-22.345 -21.724,-15.023 -39.014,-43.736 -48.594,-82 z"
           class=""
           fill="#ffffff"
           fill-opacity="1"
           stroke="#000000"
           stroke-opacity="1"
           stroke-width="4"
           data-darkreader-inline-fill=""
           data-darkreader-inline-stroke=""
           id="path4"
           style="fill:#000000;fill-opacity:1" /><path
           d="m 437.656,132.374 c -9.59,38.26 -26.87,66.978 -48.594,82 -0.03,0.022 -0.062,0.04 -0.093,0.063 2.54,7.276 4.728,14.72 6.53,22.28 1.11,-0.02 2.24,-0.06 3.406,-0.155 23.434,-1.892 56.75,-21.525 86.5,-58.72 l -47.75,-45.468 z"
           class=""
           fill="#ffffff"
           fill-opacity="1"
           stroke="#000000"
           stroke-opacity="1"
           stroke-width="4"
           data-darkreader-inline-fill=""
           data-darkreader-inline-stroke=""
           id="path5"
           style="fill:#000000;fill-opacity:1" /><path
           d="m 192.656,144.844 c 4.54,9.7 10.45,18.604 18.25,26.155 l 5.125,4.97 -3.436,6.218 c -1.8,3.292 -3.672,6.388 -5.594,9.312 32.592,11.965 67.862,11.136 98.938,-0.188 -1.88,-2.868 -3.707,-5.902 -5.47,-9.125 l -3.406,-6.218 5.094,-4.97 c 7.53,-7.29 13.308,-15.846 17.78,-25.156 -43.627,10.534 -85.4,8.503 -127.28,-1 z"
           class=""
           fill="#ffffff"
           fill-opacity="1"
           stroke="#000000"
           stroke-opacity="1"
           stroke-width="4"
           data-darkreader-inline-fill=""
           data-darkreader-inline-stroke=""
           id="path6-2"
           style="fill:#000000;fill-opacity:1" /><path
           d="m 318.156,206.654 c -38.403,15.68 -83.03,16.82 -123.406,0.157 -7.3,7.37 -15.218,12.574 -23.656,15.47 -9.922,3.404 -20.24,3.312 -30.063,0.374 -6.907,20.592 -10.78,42.597 -10.78,64.406 0,7.314 0.562,14.825 1.656,22.47 l 122.406,-29.907 2.22,-0.563 2.218,0.563 122.75,29.97 c 0.886,-7.647 1.344,-15.173 1.344,-22.533 0,-21.79 -3.89,-43.792 -10.844,-64.375 -9.812,2.928 -20.122,2.995 -30.03,-0.406 -8.5,-2.915 -16.472,-8.172 -23.814,-15.624 z"
           class=""
           fill="#ffffff"
           fill-opacity="1"
           stroke="#000000"
           stroke-opacity="1"
           stroke-width="4"
           data-darkreader-inline-fill=""
           data-darkreader-inline-stroke=""
           id="path7-5"
           style="fill:#000000;fill-opacity:1" /><path
           d="m 474.67039,202.83247 c -25.404,24.168 -52.068,38.018 -76.22,39.968 -0.427,0.034 -0.855,0.036 -1.28,0.062 1.214,8.075 1.99,16.228 2.28,24.406 22.806,3.78 54.723,0.098 90,-14.344 l -14.78,-50.093 z"
           class=""
           fill="#ffffff"
           fill-opacity="1"
           stroke="#000000"
           stroke-opacity="1"
           stroke-width="4"
           data-darkreader-inline-fill=""
           data-darkreader-inline-stroke=""
           id="path8"
           style="fill:#000000;fill-opacity:1" /><path
           d="m 37.08987,203.51434 -14.75,50.063 c 35.268,14.433 67.17,18.12 89.968,14.343 0.29,-8.18 1.076,-16.33 2.28,-24.406 -0.425,-0.026 -0.852,-0.028 -1.28,-0.063 -24.146,-1.95 -50.82,-15.777 -76.22,-39.937 z"
           class=""
           fill="#ffffff"
           fill-opacity="1"
           stroke="#000000"
           stroke-opacity="1"
           stroke-width="4"
           data-darkreader-inline-fill=""
           data-darkreader-inline-stroke=""
           id="path9"
           style="fill:#000000;fill-opacity:1" /><path
           d="m 256.531,288.53295 -121.06,29.593 c 1.972,8.128 4.51,16.35 7.5,24.625 33.536,-7.734 71.23,-11.506 108.5,-11.78 2.784,-0.02 5.564,-0.018 8.343,0 40.257,0.264 79.61,4.576 112.28,12.25 2.622,-8.343 4.8,-16.65 6.47,-24.875 l -122.034,-29.812 z"
           class=""
           fill="#ffffff"
           fill-opacity="1"
           stroke="#000000"
           stroke-opacity="1"
           stroke-width="4"
           data-darkreader-inline-fill=""
           data-darkreader-inline-stroke=""
           id="path10"
           style="fill:#000000;fill-opacity:1" /><path
           d="m 250.97413,340.81277 c -35.09,0.24 -70.5,3.556 -101.625,10.405 3.586,8.164 7.618,16.326 12.03,24.438 28.365,-2.455 59.055,-3.677 89.47,-3.782 2.763,-0.008 5.525,-0.007 8.28,0 33.542,0.107 66.446,1.56 95.22,4.158 4.04,-8.015 7.635,-16.103 10.813,-24.188 -32.65,-7.392 -73.185,-11.312 -114.188,-11.03 z"
           class=""
           fill="#ffffff"
           fill-opacity="1"
           stroke="#000000"
           stroke-opacity="1"
           stroke-width="4"
           data-darkreader-inline-fill=""
           data-darkreader-inline-stroke=""
           id="path11"
           style="fill:#000000;fill-opacity:1" /><path
           d="m 250.91113,381.49659 c -26.842,0.09 -53.864,1.036 -79.125,2.94 5.517,8.88 11.473,17.652 17.813,26.217 4.832,1.102 13.818,2.332 25.344,3.032 13.2,0.8 29.062,1.137 44.812,1.06 15.75,-0.074 31.41,-0.565 44.22,-1.405 10.923,-0.716 19.234,-1.848 23.468,-2.72 6.205,-8.426 11.88,-17.067 17.062,-25.81 -28.492,-2.267 -60.905,-3.422 -93.594,-3.314 z"
           class="selected"
           fill="#ffffff"
           fill-opacity="1"
           stroke="#000000"
           stroke-opacity="1"
           stroke-width="4"
           data-darkreader-inline-fill=""
           data-darkreader-inline-stroke=""
           id="path12"
           style="fill:#000000;fill-opacity:1" /></g></g></g><g
     inkscape:groupmode="layer"
     id="layer4"
     inkscape:label="Weapon"
     transform="translate(-56.87873,70.754528)"><path
       id="rect6"
       style="opacity:1;fill:#cf2525;fill-opacity:1;stroke:#000000;stroke-width:1.596;stroke-linecap:round;stroke-linejoin:round;stroke-dasharray:none"
       d="m 62.154804,49.174976 c 0,0 26.975827,-0.582645 43.101776,-11.097682 17.59266,11.159632 28.91975,7.023496 28.91975,7.023496 0,0 4.01572,47.540719 -5.79795,74.01924 -9.81367,26.47853 -17.1998,30.19875 -22.72135,30.49223 -5.52155,0.29347 -25.698494,-9.02654 -37.146496,-30.96382 -11.448002,-21.937278 -6.35573,-69.473464 -6.35573,-69.473464 z"
       sodipodi:nodetypes="ccczzzc" /><path
       id="rect6-9"
       style="opacity:1;fill:#000000;fill-opacity:1;stroke:#000000;stroke-width:1.052;stroke-linecap:round;stroke-linejoin:round;stroke-dasharray:none"
       d="m 67.477897,53.978648 c 0,0 23.83936,-0.514901 38.090353,-9.807361 15.54718,9.862109 25.55728,6.206879 25.55728,6.206879 0,0 3.54881,42.013191 -5.12383,65.413084 -8.67264,23.39989 -14.25251,27.52134 -19.13208,27.78069 -4.87956,0.25935 -23.65802,-8.81081 -33.77497,-28.19745 C 62.977693,95.987836 67.477897,53.978648 67.477897,53.978648 Z"
       sodipodi:nodetypes="ccczzzc" /><path
       style="fill:#000000;fill-opacity:0.348341;stroke:none;stroke-width:1px;stroke-linecap:butt;stroke-linejoin:miter;stroke-opacity:1"
       d="m 105.27696,38.13438 c 7.83465,79.6103 0.48891,111.95863 0.48891,111.95863 0,0 -30.700301,-4.17816 -42.045602,-45.95682 -4.908087,-25.970815 -1.323511,-54.546357 -1.323511,-54.546357 0,0 27.656912,-1.332529 42.880203,-11.455453 z"
       id="path6"
       sodipodi:nodetypes="ccccc" /></g><g
     inkscape:groupmode="layer"
     id="layer5"
     inkscape:label="BootLeft"
     transform="translate(120.12281,-65.22322)"><path
       style="fill:#000000;fill-opacity:1;stroke:#000000;stroke-width:0.6;stroke-linecap:butt;stroke-linejoin:miter;stroke-dasharray:none;stroke-opacity:1"
       d="m 21.094568,134.99246 v 22.35566 h 8.066477 v 10.71689 H 3.7516433 v -33.13017 z"
       id="path7"
       sodipodi:nodetypes="ccccccc" /><rect
       style="opacity:1;fill:#ff0021;fill-opacity:1;stroke:none;stroke-width:0.6;stroke-linecap:round;stroke-linejoin:round;stroke-dasharray:none;stroke-opacity:1"
       id="rect11"
       width="11.978106"
       height="1.8741241"
       x="8.8310003"
       y="145.28546" /><rect
       style="opacity:1;fill:#ff0021;fill-opacity:1;stroke:none;stroke-width:0.6;stroke-linecap:round;stroke-linejoin:round;stroke-dasharray:none;stroke-opacity:1"
       id="rect12"
       width="11.978106"
       height="1.8741241"
       x="8.8310003"
       y="141.29276" /><rect
       style="opacity:1;fill:#ff0021;fill-opacity:1;stroke:none;stroke-width:0.6;stroke-linecap:round;stroke-linejoin:round;stroke-dasharray:none;stroke-opacity:1"
       id="rect13"
       width="11.978106"
       height="1.8741241"
       x="8.8310003"
       y="149.03371" /><rect
       style="opacity:1;fill:#ff0021;fill-opacity:1;stroke:none;stroke-width:0.6;stroke-linecap:round;stroke-linejoin:round;stroke-dasharray:none;stroke-opacity:1"
       id="rect14"
       width="11.978106"
       height="1.8741241"
       x="8.8310003"
       y="152.78195" /></g><g
     inkscape:groupmode="layer"
     id="layer6"
     inkscape:label="BootRight"
     transform="translate(-146.76233,-1.1523485)" /></svg>
